<svg xmlns="http://www.w3.org/2000/svg" viewBox="0 0 32 32" fill="none">
  <defs>
    <linearGradient id="grad1" x1="0%" y1="0%" x2="100%" y2="100%">
      <stop offset="0%" style="stop-color:#6366f1;stop-opacity:1" />
      <stop offset="50%" style="stop-color:#8b5cf6;stop-opacity:1" />
      <stop offset="100%" style="stop-color:#ec4899;stop-opacity:1" />
    </linearGradient>
  </defs>
  
  <!-- 背景圆形 -->
  <circle cx="16" cy="16" r="15" fill="url(#grad1)" stroke="white" stroke-width="2"/>
  
  <!-- 人脑轮廓 -->
  <path d="M10 12c0-3 2-5 6-5s6 2 6 5c0 1-0.5 2-1 2.5v3c0 2-1.5 3.5-3.5 3.5h-3c-2 0-3.5-1.5-3.5-3.5v-3c-0.5-0.5-1-1.5-1-2.5z" 
        fill="white" opacity="0.9"/>
  
  <!-- 思维连接线 -->
  <circle cx="13" cy="14" r="1" fill="url(#grad1)"/>
  <circle cx="16" cy="16" r="1" fill="url(#grad1)"/>
  <circle cx="19" cy="14" r="1" fill="url(#grad1)"/>
  
  <!-- 连接线 -->
  <line x1="13" y1="14" x2="16" y2="16" stroke="url(#grad1)" stroke-width="1.5" opacity="0.8"/>
  <line x1="16" y1="16" x2="19" y2="14" stroke="url(#grad1)" stroke-width="1.5" opacity="0.8"/>
  
  <!-- MBTI字母提示 -->
  <text x="16" y="26" text-anchor="middle" font-family="Arial, sans-serif" font-size="6" font-weight="bold" fill="white">MBTI</text>
</svg>